<svg xmlns="http://www.w3.org/2000/svg" xmlns:xlink="http://www.w3.org/1999/xlink" width="500" zoomAndPan="magnify" viewBox="0 0 375 374.999991" height="500" preserveAspectRatio="xMidYMid meet" version="1.0"><defs><g/><clipPath id="id1"><path d="M 103.355469 79.171875 L 271.355469 79.171875 L 271.355469 247.171875 L 103.355469 247.171875 Z M 103.355469 79.171875 " clip-rule="nonzero"/></clipPath></defs><rect x="-37.5" width="450" fill="#ffffff" y="-37.499999" height="449.999989" fill-opacity="1"/><rect x="-37.5" width="450" fill="#673ab7" y="-37.499999" height="449.999989" fill-opacity="1"/><rect x="-37.5" width="450" fill="#ffffff" y="-37.499999" height="449.999989" fill-opacity="1"/><rect x="-37.5" width="450" fill="#673ab7" y="-37.499999" height="449.999989" fill-opacity="1"/><g clip-path="url(#id1)"><path fill="#f6f6e9" d="M 199.664062 154.902344 C 198.578125 154.582031 197.46875 154.421875 196.335938 154.417969 C 195.203125 154.414062 194.089844 154.570312 193 154.878906 C 191.910156 155.191406 190.886719 155.648438 189.925781 156.25 C 188.964844 156.851562 188.109375 157.574219 187.355469 158.417969 C 186.597656 157.574219 185.738281 156.851562 184.78125 156.25 C 183.820312 155.652344 182.796875 155.195312 181.707031 154.882812 C 180.617188 154.570312 179.503906 154.417969 178.371094 154.421875 C 177.238281 154.425781 176.128906 154.585938 175.042969 154.902344 C 162.863281 159.730469 164.253906 175.402344 183.546875 187.136719 C 184.121094 187.484375 184.730469 187.75 185.378906 187.929688 C 186.023438 188.109375 186.683594 188.199219 187.355469 188.199219 C 188.023438 188.199219 188.683594 188.109375 189.328125 187.929688 C 189.976562 187.75 190.585938 187.484375 191.160156 187.136719 C 210.453125 175.402344 211.84375 159.730469 199.664062 154.902344 Z M 189.191406 183.933594 C 188.625 184.277344 188.015625 184.445312 187.355469 184.445312 C 186.695312 184.445312 186.082031 184.277344 185.515625 183.933594 C 169.449219 174.144531 167.195312 162.226562 176.171875 158.5 C 176.964844 158.277344 177.773438 158.179688 178.597656 158.199219 C 179.417969 158.21875 180.222656 158.355469 181.003906 158.613281 C 181.789062 158.867188 182.515625 159.234375 183.191406 159.707031 C 183.863281 160.179688 184.457031 160.738281 184.964844 161.386719 C 185.28125 161.707031 185.644531 161.953125 186.058594 162.128906 C 186.472656 162.304688 186.902344 162.390625 187.355469 162.390625 C 187.804688 162.390625 188.234375 162.304688 188.648438 162.128906 C 189.0625 161.953125 189.429688 161.707031 189.742188 161.386719 C 190.25 160.738281 190.84375 160.179688 191.519531 159.707031 C 192.191406 159.238281 192.921875 158.871094 193.703125 158.617188 C 194.484375 158.359375 195.289062 158.21875 196.109375 158.199219 C 196.933594 158.179688 197.742188 158.28125 198.535156 158.5 C 207.511719 162.226562 205.257812 174.144531 189.191406 183.933594 Z M 199.664062 154.902344 C 198.578125 154.582031 197.46875 154.421875 196.335938 154.417969 C 195.203125 154.414062 194.089844 154.570312 193 154.878906 C 191.910156 155.191406 190.886719 155.648438 189.925781 156.25 C 188.964844 156.851562 188.109375 157.574219 187.355469 158.417969 C 186.597656 157.574219 185.738281 156.851562 184.78125 156.25 C 183.820312 155.652344 182.796875 155.195312 181.707031 154.882812 C 180.617188 154.570312 179.503906 154.417969 178.371094 154.421875 C 177.238281 154.425781 176.128906 154.585938 175.042969 154.902344 C 162.863281 159.730469 164.253906 175.402344 183.546875 187.136719 C 184.121094 187.484375 184.730469 187.75 185.378906 187.929688 C 186.023438 188.109375 186.683594 188.199219 187.355469 188.199219 C 188.023438 188.199219 188.683594 188.109375 189.328125 187.929688 C 189.976562 187.75 190.585938 187.484375 191.160156 187.136719 C 210.453125 175.402344 211.84375 159.730469 199.664062 154.902344 Z M 189.191406 183.933594 C 188.625 184.277344 188.015625 184.445312 187.355469 184.445312 C 186.695312 184.445312 186.082031 184.277344 185.515625 183.933594 C 169.449219 174.144531 167.195312 162.226562 176.171875 158.5 C 176.964844 158.277344 177.773438 158.179688 178.597656 158.199219 C 179.417969 158.21875 180.222656 158.355469 181.003906 158.613281 C 181.789062 158.867188 182.515625 159.234375 183.191406 159.707031 C 183.863281 160.179688 184.457031 160.738281 184.964844 161.386719 C 185.28125 161.707031 185.644531 161.953125 186.058594 162.128906 C 186.472656 162.304688 186.902344 162.390625 187.355469 162.390625 C 187.804688 162.390625 188.234375 162.304688 188.648438 162.128906 C 189.0625 161.953125 189.429688 161.707031 189.742188 161.386719 C 190.25 160.738281 190.84375 160.179688 191.519531 159.707031 C 192.191406 159.238281 192.921875 158.871094 193.703125 158.617188 C 194.484375 158.359375 195.289062 158.21875 196.109375 158.199219 C 196.933594 158.179688 197.742188 158.28125 198.535156 158.5 C 207.511719 162.226562 205.257812 174.144531 189.191406 183.933594 Z M 199.664062 154.902344 C 198.578125 154.582031 197.46875 154.421875 196.335938 154.417969 C 195.203125 154.414062 194.089844 154.570312 193 154.878906 C 191.910156 155.191406 190.886719 155.648438 189.925781 156.25 C 188.964844 156.851562 188.109375 157.574219 187.355469 158.417969 C 186.597656 157.574219 185.738281 156.851562 184.78125 156.25 C 183.820312 155.652344 182.796875 155.195312 181.707031 154.882812 C 180.617188 154.570312 179.503906 154.417969 178.371094 154.421875 C 177.238281 154.425781 176.128906 154.585938 175.042969 154.902344 C 162.863281 159.730469 164.253906 175.402344 183.546875 187.136719 C 184.121094 187.484375 184.730469 187.75 185.378906 187.929688 C 186.023438 188.109375 186.683594 188.199219 187.355469 188.199219 C 188.023438 188.199219 188.683594 188.109375 189.328125 187.929688 C 189.976562 187.75 190.585938 187.484375 191.160156 187.136719 C 210.453125 175.402344 211.84375 159.730469 199.664062 154.902344 Z M 189.191406 183.933594 C 188.625 184.277344 188.015625 184.445312 187.355469 184.445312 C 186.695312 184.445312 186.082031 184.277344 185.515625 183.933594 C 169.449219 174.144531 167.195312 162.226562 176.171875 158.5 C 176.964844 158.277344 177.773438 158.179688 178.597656 158.199219 C 179.417969 158.21875 180.222656 158.355469 181.003906 158.613281 C 181.789062 158.867188 182.515625 159.234375 183.191406 159.707031 C 183.863281 160.179688 184.457031 160.738281 184.964844 161.386719 C 185.28125 161.707031 185.644531 161.953125 186.058594 162.128906 C 186.472656 162.304688 186.902344 162.390625 187.355469 162.390625 C 187.804688 162.390625 188.234375 162.304688 188.648438 162.128906 C 189.0625 161.953125 189.429688 161.707031 189.742188 161.386719 C 190.25 160.738281 190.84375 160.179688 191.519531 159.707031 C 192.191406 159.238281 192.921875 158.871094 193.703125 158.617188 C 194.484375 158.359375 195.289062 158.21875 196.109375 158.199219 C 196.933594 158.179688 197.742188 158.28125 198.535156 158.5 C 207.511719 162.226562 205.257812 174.144531 189.191406 183.933594 Z M 199.664062 154.902344 C 198.578125 154.582031 197.46875 154.421875 196.335938 154.417969 C 195.203125 154.414062 194.089844 154.570312 193 154.878906 C 191.910156 155.191406 190.886719 155.648438 189.925781 156.25 C 188.964844 156.851562 188.109375 157.574219 187.355469 158.417969 C 186.597656 157.574219 185.738281 156.851562 184.78125 156.25 C 183.820312 155.652344 182.796875 155.195312 181.707031 154.882812 C 180.617188 154.570312 179.503906 154.417969 178.371094 154.421875 C 177.238281 154.425781 176.128906 154.585938 175.042969 154.902344 C 162.863281 159.730469 164.253906 175.402344 183.546875 187.136719 C 184.121094 187.484375 184.730469 187.75 185.378906 187.929688 C 186.023438 188.109375 186.683594 188.199219 187.355469 188.199219 C 188.023438 188.199219 188.683594 188.109375 189.328125 187.929688 C 189.976562 187.75 190.585938 187.484375 191.160156 187.136719 C 210.453125 175.402344 211.84375 159.730469 199.664062 154.902344 Z M 189.191406 183.933594 C 188.625 184.277344 188.015625 184.445312 187.355469 184.445312 C 186.695312 184.445312 186.082031 184.277344 185.515625 183.933594 C 169.449219 174.144531 167.195312 162.226562 176.171875 158.5 C 176.964844 158.277344 177.773438 158.179688 178.597656 158.199219 C 179.417969 158.21875 180.222656 158.355469 181.003906 158.613281 C 181.789062 158.867188 182.515625 159.234375 183.191406 159.707031 C 183.863281 160.179688 184.457031 160.738281 184.964844 161.386719 C 185.28125 161.707031 185.644531 161.953125 186.058594 162.128906 C 186.472656 162.304688 186.902344 162.390625 187.355469 162.390625 C 187.804688 162.390625 188.234375 162.304688 188.648438 162.128906 C 189.0625 161.953125 189.429688 161.707031 189.742188 161.386719 C 190.25 160.738281 190.84375 160.179688 191.519531 159.707031 C 192.191406 159.238281 192.921875 158.871094 193.703125 158.617188 C 194.484375 158.359375 195.289062 158.21875 196.109375 158.199219 C 196.933594 158.179688 197.742188 158.28125 198.535156 158.5 C 207.511719 162.226562 205.257812 174.144531 189.191406 183.933594 Z M 187.355469 79.171875 C 185.980469 79.171875 184.605469 79.203125 183.230469 79.273438 C 181.859375 79.339844 180.488281 79.441406 179.121094 79.574219 C 177.753906 79.710938 176.386719 79.878906 175.027344 80.078125 C 173.667969 80.28125 172.3125 80.515625 170.964844 80.785156 C 169.617188 81.054688 168.277344 81.355469 166.941406 81.6875 C 165.609375 82.023438 164.285156 82.390625 162.96875 82.789062 C 161.652344 83.1875 160.347656 83.617188 159.054688 84.082031 C 157.761719 84.542969 156.476562 85.039062 155.207031 85.566406 C 153.9375 86.089844 152.683594 86.648438 151.4375 87.234375 C 150.195312 87.824219 148.96875 88.441406 147.757812 89.089844 C 146.542969 89.738281 145.347656 90.414062 144.167969 91.121094 C 142.988281 91.828125 141.828125 92.5625 140.6875 93.328125 C 139.542969 94.089844 138.417969 94.882812 137.316406 95.703125 C 136.210938 96.519531 135.128906 97.367188 134.066406 98.238281 C 133 99.109375 131.960938 100.007812 130.941406 100.929688 C 129.925781 101.855469 128.929688 102.800781 127.957031 103.773438 C 126.984375 104.746094 126.035156 105.742188 125.113281 106.761719 C 124.191406 107.777344 123.292969 108.820312 122.421875 109.882812 C 121.546875 110.945312 120.703125 112.027344 119.882812 113.132812 C 119.066406 114.238281 118.273438 115.359375 117.511719 116.503906 C 116.746094 117.644531 116.011719 118.808594 115.304688 119.984375 C 114.597656 121.164062 113.921875 122.359375 113.273438 123.574219 C 112.625 124.785156 112.007812 126.011719 111.417969 127.257812 C 110.832031 128.5 110.273438 129.753906 109.746094 131.027344 C 109.222656 132.296875 108.726562 133.578125 108.265625 134.871094 C 107.800781 136.167969 107.371094 137.472656 106.96875 138.785156 C 106.570312 140.101562 106.203125 141.425781 105.871094 142.761719 C 105.535156 144.09375 105.234375 145.433594 104.96875 146.785156 C 104.699219 148.132812 104.464844 149.484375 104.261719 150.84375 C 104.0625 152.207031 103.894531 153.570312 103.757812 154.9375 C 103.625 156.304688 103.523438 157.675781 103.453125 159.050781 C 103.386719 160.421875 103.355469 161.796875 103.355469 163.171875 C 103.355469 164.546875 103.386719 165.917969 103.453125 167.292969 C 103.523438 168.664062 103.625 170.035156 103.757812 171.40625 C 103.894531 172.773438 104.0625 174.136719 104.261719 175.496094 C 104.464844 176.855469 104.699219 178.210938 104.96875 179.558594 C 105.234375 180.90625 105.535156 182.246094 105.871094 183.582031 C 106.203125 184.914062 106.570312 186.238281 106.96875 187.554688 C 107.371094 188.871094 107.800781 190.175781 108.265625 191.46875 C 108.726562 192.765625 109.222656 194.046875 109.746094 195.316406 C 110.273438 196.585938 110.832031 197.84375 111.417969 199.085938 C 112.007812 200.328125 112.625 201.554688 113.273438 202.769531 C 113.921875 203.980469 114.597656 205.175781 115.304688 206.355469 C 116.011719 207.535156 116.746094 208.695312 117.511719 209.839844 C 118.273438 210.980469 119.066406 212.105469 119.882812 213.210938 C 120.703125 214.3125 121.546875 215.398438 122.421875 216.460938 C 123.292969 217.523438 124.191406 218.5625 125.113281 219.582031 C 126.035156 220.601562 126.984375 221.597656 127.957031 222.566406 C 128.929688 223.539062 129.925781 224.488281 130.941406 225.410156 C 131.960938 226.332031 133 227.230469 134.066406 228.105469 C 135.128906 228.976562 136.210938 229.820312 137.316406 230.640625 C 138.417969 231.460938 139.542969 232.25 140.6875 233.015625 C 141.828125 233.777344 142.988281 234.511719 144.167969 235.21875 C 145.347656 235.925781 146.542969 236.605469 147.757812 237.253906 C 148.96875 237.898438 150.195312 238.519531 151.4375 239.105469 C 152.683594 239.695312 153.9375 240.25 155.207031 240.777344 C 156.476562 241.304688 157.761719 241.796875 159.054688 242.261719 C 160.347656 242.722656 161.652344 243.15625 162.96875 243.554688 C 164.285156 243.953125 165.609375 244.320312 166.941406 244.652344 C 168.277344 244.988281 169.617188 245.289062 170.964844 245.558594 C 172.3125 245.824219 173.667969 246.058594 175.027344 246.261719 C 176.386719 246.464844 177.753906 246.632812 179.121094 246.765625 C 180.488281 246.902344 181.859375 247.003906 183.230469 247.070312 C 184.605469 247.136719 185.980469 247.171875 187.355469 247.171875 C 188.726562 247.171875 190.101562 247.136719 191.476562 247.070312 C 192.847656 247.003906 194.21875 246.902344 195.585938 246.765625 C 196.957031 246.632812 198.320312 246.464844 199.679688 246.261719 C 201.039062 246.058594 202.394531 245.824219 203.742188 245.558594 C 205.089844 245.289062 206.429688 244.988281 207.765625 244.652344 C 209.097656 244.320312 210.421875 243.953125 211.738281 243.554688 C 213.054688 243.15625 214.359375 242.722656 215.652344 242.261719 C 216.945312 241.796875 218.230469 241.304688 219.5 240.777344 C 220.769531 240.25 222.027344 239.695312 223.269531 239.105469 C 224.511719 238.519531 225.738281 237.898438 226.949219 237.253906 C 228.164062 236.605469 229.359375 235.925781 230.539062 235.21875 C 231.71875 234.511719 232.878906 233.777344 234.023438 233.015625 C 235.164062 232.25 236.289062 231.460938 237.390625 230.640625 C 238.496094 229.820312 239.578125 228.976562 240.644531 228.105469 C 241.707031 227.230469 242.746094 226.332031 243.765625 225.410156 C 244.78125 224.488281 245.777344 223.539062 246.75 222.566406 C 247.722656 221.597656 248.671875 220.601562 249.59375 219.582031 C 250.515625 218.5625 251.414062 217.523438 252.285156 216.460938 C 253.160156 215.398438 254.003906 214.3125 254.824219 213.210938 C 255.640625 212.105469 256.433594 210.980469 257.195312 209.839844 C 257.960938 208.695312 258.695312 207.535156 259.402344 206.355469 C 260.109375 205.175781 260.785156 203.980469 261.433594 202.769531 C 262.082031 201.554688 262.699219 200.328125 263.289062 199.085938 C 263.875 197.84375 264.433594 196.585938 264.960938 195.316406 C 265.484375 194.046875 265.980469 192.765625 266.441406 191.46875 C 266.90625 190.175781 267.335938 188.871094 267.738281 187.554688 C 268.136719 186.238281 268.503906 184.914062 268.835938 183.582031 C 269.171875 182.246094 269.472656 180.90625 269.738281 179.558594 C 270.007812 178.210938 270.242188 176.855469 270.445312 175.496094 C 270.644531 174.136719 270.8125 172.773438 270.949219 171.40625 C 271.082031 170.035156 271.183594 168.664062 271.253906 167.292969 C 271.320312 165.917969 271.355469 164.546875 271.355469 163.171875 C 271.351562 161.796875 271.320312 160.421875 271.25 159.050781 C 271.183594 157.675781 271.082031 156.304688 270.945312 154.9375 C 270.8125 153.570312 270.644531 152.203125 270.441406 150.84375 C 270.238281 149.484375 270.003906 148.128906 269.734375 146.78125 C 269.46875 145.433594 269.167969 144.09375 268.832031 142.757812 C 268.496094 141.425781 268.132812 140.101562 267.730469 138.785156 C 267.332031 137.46875 266.902344 136.164062 266.4375 134.871094 C 265.972656 133.578125 265.480469 132.292969 264.953125 131.023438 C 264.425781 129.753906 263.871094 128.496094 263.28125 127.253906 C 262.695312 126.011719 262.078125 124.785156 261.429688 123.570312 C 260.78125 122.359375 260.101562 121.164062 259.394531 119.984375 C 258.6875 118.804688 257.953125 117.644531 257.191406 116.5 C 256.425781 115.359375 255.632812 114.234375 254.816406 113.128906 C 253.996094 112.027344 253.152344 110.941406 252.277344 109.878906 C 251.40625 108.816406 250.507812 107.777344 249.585938 106.757812 C 248.664062 105.738281 247.714844 104.746094 246.742188 103.773438 C 245.769531 102.800781 244.777344 101.851562 243.757812 100.929688 C 242.738281 100.007812 241.699219 99.109375 240.636719 98.238281 C 239.574219 97.363281 238.488281 96.519531 237.386719 95.699219 C 236.28125 94.882812 235.15625 94.089844 234.015625 93.328125 C 232.871094 92.5625 231.710938 91.828125 230.53125 91.121094 C 229.351562 90.414062 228.15625 89.738281 226.945312 89.089844 C 225.734375 88.441406 224.503906 87.824219 223.261719 87.234375 C 222.019531 86.648438 220.765625 86.089844 219.496094 85.566406 C 218.222656 85.039062 216.941406 84.542969 215.648438 84.082031 C 214.355469 83.617188 213.050781 83.1875 211.734375 82.789062 C 210.417969 82.386719 209.09375 82.023438 207.761719 81.6875 C 206.425781 81.355469 205.085938 81.054688 203.738281 80.785156 C 202.390625 80.515625 201.035156 80.28125 199.675781 80.078125 C 198.316406 79.878906 196.953125 79.710938 195.585938 79.574219 C 194.21875 79.441406 192.847656 79.339844 191.476562 79.273438 C 190.101562 79.203125 188.726562 79.171875 187.355469 79.171875 Z M 236.019531 212.101562 L 138.6875 212.101562 C 138.441406 212.097656 138.203125 212.046875 137.976562 211.949219 C 137.75 211.851562 137.550781 211.714844 137.378906 211.539062 C 137.207031 211.363281 137.074219 211.164062 136.980469 210.933594 C 136.886719 210.707031 136.839844 210.46875 136.839844 210.222656 C 136.839844 209.976562 136.886719 209.742188 136.980469 209.511719 C 137.074219 209.285156 137.207031 209.082031 137.378906 208.90625 C 137.550781 208.730469 137.75 208.597656 137.976562 208.5 C 138.203125 208.402344 138.441406 208.351562 138.6875 208.347656 L 236.019531 208.347656 C 236.265625 208.351562 236.503906 208.402344 236.730469 208.5 C 236.957031 208.597656 237.15625 208.730469 237.328125 208.90625 C 237.5 209.082031 237.632812 209.285156 237.726562 209.511719 C 237.820312 209.742188 237.867188 209.976562 237.867188 210.222656 C 237.867188 210.46875 237.820312 210.707031 237.726562 210.933594 C 237.632812 211.164062 237.5 211.363281 237.328125 211.539062 C 237.15625 211.714844 236.957031 211.851562 236.730469 211.949219 C 236.503906 212.046875 236.265625 212.097656 236.019531 212.101562 Z M 144.25 204.59375 L 144.25 148.496094 C 144.253906 148.164062 144.335938 147.855469 144.5 147.566406 C 144.664062 147.273438 144.886719 147.042969 145.167969 146.871094 L 186.410156 122.273438 C 186.699219 122.101562 187.015625 122.015625 187.355469 122.015625 C 187.691406 122.015625 188.007812 122.101562 188.296875 122.273438 L 229.539062 146.871094 C 229.820312 147.042969 230.042969 147.273438 230.207031 147.566406 C 230.371094 147.855469 230.453125 148.164062 230.457031 148.496094 L 230.457031 204.59375 Z M 237.019531 146.710938 L 190.242188 118.78125 C 189.804688 118.523438 189.339844 118.328125 188.851562 118.195312 C 188.359375 118.0625 187.863281 117.996094 187.355469 117.996094 C 186.847656 117.996094 186.347656 118.0625 185.855469 118.195312 C 185.367188 118.328125 184.902344 118.523438 184.464844 118.78125 L 137.6875 146.710938 C 137.472656 146.839844 137.242188 146.921875 136.996094 146.957031 C 136.75 146.996094 136.507812 146.980469 136.265625 146.921875 C 136.023438 146.859375 135.800781 146.753906 135.601562 146.605469 C 135.402344 146.453125 135.238281 146.273438 135.113281 146.058594 C 134.984375 145.84375 134.902344 145.613281 134.867188 145.367188 C 134.832031 145.121094 134.84375 144.875 134.90625 144.632812 C 134.96875 144.390625 135.074219 144.171875 135.226562 143.972656 C 135.375 143.773438 135.558594 143.609375 135.773438 143.484375 L 182.550781 115.578125 C 183.273438 115.140625 184.042969 114.808594 184.859375 114.582031 C 185.675781 114.355469 186.507812 114.242188 187.355469 114.242188 C 188.199219 114.242188 189.03125 114.355469 189.847656 114.582031 C 190.664062 114.808594 191.433594 115.140625 192.15625 115.578125 L 238.933594 143.484375 C 239.144531 143.613281 239.320312 143.777344 239.464844 143.976562 C 239.605469 144.175781 239.707031 144.394531 239.765625 144.632812 C 239.824219 144.871094 239.835938 145.113281 239.796875 145.355469 C 239.761719 145.597656 239.679688 145.824219 239.554688 146.035156 C 239.429688 146.246094 239.269531 146.425781 239.074219 146.574219 C 238.878906 146.722656 238.664062 146.828125 238.425781 146.890625 C 238.1875 146.953125 237.949219 146.96875 237.703125 146.941406 C 237.460938 146.910156 237.230469 146.832031 237.019531 146.710938 Z M 199.664062 154.902344 C 198.578125 154.582031 197.46875 154.421875 196.335938 154.417969 C 195.203125 154.414062 194.089844 154.570312 193 154.878906 C 191.910156 155.191406 190.886719 155.648438 189.925781 156.25 C 188.964844 156.851562 188.109375 157.574219 187.355469 158.417969 C 186.597656 157.574219 185.738281 156.851562 184.78125 156.25 C 183.820312 155.652344 182.796875 155.195312 181.707031 154.882812 C 180.617188 154.570312 179.503906 154.417969 178.371094 154.421875 C 177.238281 154.425781 176.128906 154.585938 175.042969 154.902344 C 162.863281 159.730469 164.253906 175.402344 183.546875 187.136719 C 184.121094 187.484375 184.730469 187.75 185.378906 187.929688 C 186.023438 188.109375 186.683594 188.199219 187.355469 188.199219 C 188.023438 188.199219 188.683594 188.109375 189.328125 187.929688 C 189.976562 187.75 190.585938 187.484375 191.160156 187.136719 C 210.453125 175.402344 211.84375 159.730469 199.664062 154.902344 Z M 189.191406 183.933594 C 188.625 184.277344 188.015625 184.445312 187.355469 184.445312 C 186.695312 184.445312 186.082031 184.277344 185.515625 183.933594 C 169.449219 174.144531 167.195312 162.226562 176.171875 158.5 C 176.964844 158.277344 177.773438 158.179688 178.597656 158.199219 C 179.417969 158.21875 180.222656 158.355469 181.003906 158.613281 C 181.789062 158.867188 182.515625 159.234375 183.191406 159.707031 C 183.863281 160.179688 184.457031 160.738281 184.964844 161.386719 C 185.28125 161.707031 185.644531 161.953125 186.058594 162.128906 C 186.472656 162.304688 186.902344 162.390625 187.355469 162.390625 C 187.804688 162.390625 188.234375 162.304688 188.648438 162.128906 C 189.0625 161.953125 189.429688 161.707031 189.742188 161.386719 C 190.25 160.738281 190.84375 160.179688 191.519531 159.707031 C 192.191406 159.238281 192.921875 158.871094 193.703125 158.617188 C 194.484375 158.359375 195.289062 158.21875 196.109375 158.199219 C 196.933594 158.179688 197.742188 158.28125 198.535156 158.5 C 207.511719 162.226562 205.257812 174.144531 189.191406 183.933594 Z M 199.664062 154.902344 C 198.578125 154.582031 197.46875 154.421875 196.335938 154.417969 C 195.203125 154.414062 194.089844 154.570312 193 154.878906 C 191.910156 155.191406 190.886719 155.648438 189.925781 156.25 C 188.964844 156.851562 188.109375 157.574219 187.355469 158.417969 C 186.597656 157.574219 185.738281 156.851562 184.78125 156.25 C 183.820312 155.652344 182.796875 155.195312 181.707031 154.882812 C 180.617188 154.570312 179.503906 154.417969 178.371094 154.421875 C 177.238281 154.425781 176.128906 154.585938 175.042969 154.902344 C 162.863281 159.730469 164.253906 175.402344 183.546875 187.136719 C 184.121094 187.484375 184.730469 187.75 185.378906 187.929688 C 186.023438 188.109375 186.683594 188.199219 187.355469 188.199219 C 188.023438 188.199219 188.683594 188.109375 189.328125 187.929688 C 189.976562 187.75 190.585938 187.484375 191.160156 187.136719 C 210.453125 175.402344 211.84375 159.730469 199.664062 154.902344 Z M 189.191406 183.933594 C 188.625 184.277344 188.015625 184.445312 187.355469 184.445312 C 186.695312 184.445312 186.082031 184.277344 185.515625 183.933594 C 169.449219 174.144531 167.195312 162.226562 176.171875 158.5 C 176.964844 158.277344 177.773438 158.179688 178.597656 158.199219 C 179.417969 158.21875 180.222656 158.355469 181.003906 158.613281 C 181.789062 158.867188 182.515625 159.234375 183.191406 159.707031 C 183.863281 160.179688 184.457031 160.738281 184.964844 161.386719 C 185.28125 161.707031 185.644531 161.953125 186.058594 162.128906 C 186.472656 162.304688 186.902344 162.390625 187.355469 162.390625 C 187.804688 162.390625 188.234375 162.304688 188.648438 162.128906 C 189.0625 161.953125 189.429688 161.707031 189.742188 161.386719 C 190.25 160.738281 190.84375 160.179688 191.519531 159.707031 C 192.191406 159.238281 192.921875 158.871094 193.703125 158.617188 C 194.484375 158.359375 195.289062 158.21875 196.109375 158.199219 C 196.933594 158.179688 197.742188 158.28125 198.535156 158.5 C 207.511719 162.226562 205.257812 174.144531 189.191406 183.933594 Z M 199.664062 154.902344 C 198.578125 154.582031 197.46875 154.421875 196.335938 154.417969 C 195.203125 154.414062 194.089844 154.570312 193 154.878906 C 191.910156 155.191406 190.886719 155.648438 189.925781 156.25 C 188.964844 156.851562 188.109375 157.574219 187.355469 158.417969 C 186.597656 157.574219 185.738281 156.851562 184.78125 156.25 C 183.820312 155.652344 182.796875 155.195312 181.707031 154.882812 C 180.617188 154.570312 179.503906 154.417969 178.371094 154.421875 C 177.238281 154.425781 176.128906 154.585938 175.042969 154.902344 C 162.863281 159.730469 164.253906 175.402344 183.546875 187.136719 C 184.121094 187.484375 184.730469 187.75 185.378906 187.929688 C 186.023438 188.109375 186.683594 188.199219 187.355469 188.199219 C 188.023438 188.199219 188.683594 188.109375 189.328125 187.929688 C 189.976562 187.75 190.585938 187.484375 191.160156 187.136719 C 210.453125 175.402344 211.84375 159.730469 199.664062 154.902344 Z M 189.191406 183.933594 C 188.625 184.277344 188.015625 184.445312 187.355469 184.445312 C 186.695312 184.445312 186.082031 184.277344 185.515625 183.933594 C 169.449219 174.144531 167.195312 162.226562 176.171875 158.5 C 176.964844 158.277344 177.773438 158.179688 178.597656 158.199219 C 179.417969 158.21875 180.222656 158.355469 181.003906 158.613281 C 181.789062 158.867188 182.515625 159.234375 183.191406 159.707031 C 183.863281 160.179688 184.457031 160.738281 184.964844 161.386719 C 185.28125 161.707031 185.644531 161.953125 186.058594 162.128906 C 186.472656 162.304688 186.902344 162.390625 187.355469 162.390625 C 187.804688 162.390625 188.234375 162.304688 188.648438 162.128906 C 189.0625 161.953125 189.429688 161.707031 189.742188 161.386719 C 190.25 160.738281 190.84375 160.179688 191.519531 159.707031 C 192.191406 159.238281 192.921875 158.871094 193.703125 158.617188 C 194.484375 158.359375 195.289062 158.21875 196.109375 158.199219 C 196.933594 158.179688 197.742188 158.28125 198.535156 158.5 C 207.511719 162.226562 205.257812 174.144531 189.191406 183.933594 Z M 199.664062 154.902344 C 198.578125 154.582031 197.46875 154.421875 196.335938 154.417969 C 195.203125 154.414062 194.089844 154.570312 193 154.878906 C 191.910156 155.191406 190.886719 155.648438 189.925781 156.25 C 188.964844 156.851562 188.109375 157.574219 187.355469 158.417969 C 186.597656 157.574219 185.738281 156.851562 184.78125 156.25 C 183.820312 155.652344 182.796875 155.195312 181.707031 154.882812 C 180.617188 154.570312 179.503906 154.417969 178.371094 154.421875 C 177.238281 154.425781 176.128906 154.585938 175.042969 154.902344 C 162.863281 159.730469 164.253906 175.402344 183.546875 187.136719 C 184.121094 187.484375 184.730469 187.75 185.378906 187.929688 C 186.023438 188.109375 186.683594 188.199219 187.355469 188.199219 C 188.023438 188.199219 188.683594 188.109375 189.328125 187.929688 C 189.976562 187.75 190.585938 187.484375 191.160156 187.136719 C 210.453125 175.402344 211.84375 159.730469 199.664062 154.902344 Z M 189.191406 183.933594 C 188.625 184.277344 188.015625 184.445312 187.355469 184.445312 C 186.695312 184.445312 186.082031 184.277344 185.515625 183.933594 C 169.449219 174.144531 167.195312 162.226562 176.171875 158.5 C 176.964844 158.277344 177.773438 158.179688 178.597656 158.199219 C 179.417969 158.21875 180.222656 158.355469 181.003906 158.613281 C 181.789062 158.867188 182.515625 159.234375 183.191406 159.707031 C 183.863281 160.179688 184.457031 160.738281 184.964844 161.386719 C 185.28125 161.707031 185.644531 161.953125 186.058594 162.128906 C 186.472656 162.304688 186.902344 162.390625 187.355469 162.390625 C 187.804688 162.390625 188.234375 162.304688 188.648438 162.128906 C 189.0625 161.953125 189.429688 161.707031 189.742188 161.386719 C 190.25 160.738281 190.84375 160.179688 191.519531 159.707031 C 192.191406 159.238281 192.921875 158.871094 193.703125 158.617188 C 194.484375 158.359375 195.289062 158.21875 196.109375 158.199219 C 196.933594 158.179688 197.742188 158.28125 198.535156 158.5 C 207.511719 162.226562 205.257812 174.144531 189.191406 183.933594 Z M 199.664062 154.902344 C 198.578125 154.582031 197.46875 154.421875 196.335938 154.417969 C 195.203125 154.414062 194.089844 154.570312 193 154.878906 C 191.910156 155.191406 190.886719 155.648438 189.925781 156.25 C 188.964844 156.851562 188.109375 157.574219 187.355469 158.417969 C 186.597656 157.574219 185.738281 156.851562 184.78125 156.25 C 183.820312 155.652344 182.796875 155.195312 181.707031 154.882812 C 180.617188 154.570312 179.503906 154.417969 178.371094 154.421875 C 177.238281 154.425781 176.128906 154.585938 175.042969 154.902344 C 162.863281 159.730469 164.253906 175.402344 183.546875 187.136719 C 184.121094 187.484375 184.730469 187.75 185.378906 187.929688 C 186.023438 188.109375 186.683594 188.199219 187.355469 188.199219 C 188.023438 188.199219 188.683594 188.109375 189.328125 187.929688 C 189.976562 187.75 190.585938 187.484375 191.160156 187.136719 C 210.453125 175.402344 211.84375 159.730469 199.664062 154.902344 Z M 189.191406 183.933594 C 188.625 184.277344 188.015625 184.445312 187.355469 184.445312 C 186.695312 184.445312 186.082031 184.277344 185.515625 183.933594 C 169.449219 174.144531 167.195312 162.226562 176.171875 158.5 C 176.964844 158.277344 177.773438 158.179688 178.597656 158.199219 C 179.417969 158.21875 180.222656 158.355469 181.003906 158.613281 C 181.789062 158.867188 182.515625 159.234375 183.191406 159.707031 C 183.863281 160.179688 184.457031 160.738281 184.964844 161.386719 C 185.28125 161.707031 185.644531 161.953125 186.058594 162.128906 C 186.472656 162.304688 186.902344 162.390625 187.355469 162.390625 C 187.804688 162.390625 188.234375 162.304688 188.648438 162.128906 C 189.0625 161.953125 189.429688 161.707031 189.742188 161.386719 C 190.25 160.738281 190.84375 160.179688 191.519531 159.707031 C 192.191406 159.238281 192.921875 158.871094 193.703125 158.617188 C 194.484375 158.359375 195.289062 158.21875 196.109375 158.199219 C 196.933594 158.179688 197.742188 158.28125 198.535156 158.5 C 207.511719 162.226562 205.257812 174.144531 189.191406 183.933594 Z M 189.191406 183.933594 " fill-opacity="1" fill-rule="nonzero"/></g><g fill="#291b25" fill-opacity="1"><g transform="translate(146.339453, 232.213564)"><g><path d="M 12.9375 -2.3125 C 13.195312 -2.3125 13.328125 -2.160156 13.328125 -1.859375 C 13.328125 -1.617188 13.140625 -1.375 12.765625 -1.125 C 12.054688 -0.664062 11.460938 -0.363281 10.984375 -0.21875 C 10.078125 0.0507812 9.125 0.1875 8.125 0.1875 C 7.132812 0.1875 6.175781 0.0078125 5.25 -0.34375 C 4.332031 -0.695312 3.550781 -1.195312 2.90625 -1.84375 C 1.539062 -3.175781 0.859375 -4.90625 0.859375 -7.03125 C 0.859375 -8.050781 1.050781 -8.988281 1.4375 -9.84375 C 1.820312 -10.707031 2.351562 -11.441406 3.03125 -12.046875 C 4.457031 -13.347656 6.253906 -14 8.421875 -14 C 9.640625 -14 10.710938 -13.789062 11.640625 -13.375 C 12.617188 -12.9375 13.109375 -12.5625 13.109375 -12.25 C 13.109375 -12.132812 13.066406 -12.03125 12.984375 -11.9375 C 12.910156 -11.84375 12.820312 -11.796875 12.71875 -11.796875 C 12.507812 -11.796875 12.316406 -11.890625 12.140625 -12.078125 C 11.972656 -12.265625 11.742188 -12.429688 11.453125 -12.578125 C 11.171875 -12.722656 10.859375 -12.851562 10.515625 -12.96875 C 9.804688 -13.1875 9.160156 -13.296875 8.578125 -13.296875 C 8.003906 -13.296875 7.53125 -13.253906 7.15625 -13.171875 L 7.15625 -0.65625 C 7.613281 -0.570312 8.015625 -0.53125 8.359375 -0.53125 C 8.710938 -0.53125 9.070312 -0.550781 9.4375 -0.59375 C 9.800781 -0.644531 10.160156 -0.722656 10.515625 -0.828125 C 11.304688 -1.066406 11.898438 -1.410156 12.296875 -1.859375 C 12.441406 -2.035156 12.554688 -2.15625 12.640625 -2.21875 C 12.722656 -2.28125 12.820312 -2.3125 12.9375 -2.3125 Z M 12.9375 -2.3125 "/></g></g></g><g fill="#291b25" fill-opacity="1"><g transform="translate(160.357412, 232.213564)"><g><path d="M 5.375 -0.40625 C 5.207031 -0.0625 4.984375 0.109375 4.703125 0.109375 C 4.421875 0.109375 4.28125 -0.0351562 4.28125 -0.328125 C 4.28125 -0.503906 4.367188 -0.695312 4.546875 -0.90625 C 4.878906 -1.300781 5.203125 -1.765625 5.515625 -2.296875 L 6 -3.1875 L 0.203125 -13.8125 L 5.90625 -13.8125 L 8.6875 -7.9375 L 11.1875 -12.375 C 11.375 -12.707031 11.53125 -13.046875 11.65625 -13.390625 C 11.789062 -13.742188 11.960938 -13.921875 12.171875 -13.921875 C 12.441406 -13.921875 12.578125 -13.789062 12.578125 -13.53125 C 12.578125 -13.375 12.519531 -13.191406 12.40625 -12.984375 L 5.71875 -1.078125 C 5.644531 -0.941406 5.585938 -0.832031 5.546875 -0.75 Z M 5.375 -0.40625 "/></g></g></g><g fill="#291b25" fill-opacity="1"><g transform="translate(173.243001, 232.213564)"><g><path d="M 8.1875 -4.046875 L 9.0625 -4.015625 C 10.320312 -4.015625 11.363281 -4.429688 12.1875 -5.265625 C 13.019531 -6.109375 13.457031 -7.195312 13.5 -8.53125 C 13.570312 -10.582031 12.582031 -11.972656 10.53125 -12.703125 C 9.757812 -12.972656 8.757812 -13.109375 7.53125 -13.109375 L 6.703125 -13.109375 L 6.703125 0 L 1.734375 0 L 1.734375 -13.8125 L 5.46875 -13.8125 C 7.488281 -13.8125 8.707031 -13.78125 9.125 -13.71875 C 9.539062 -13.664062 9.972656 -13.59375 10.421875 -13.5 C 10.878906 -13.414062 11.367188 -13.21875 11.890625 -12.90625 C 12.410156 -12.601562 12.851562 -12.238281 13.21875 -11.8125 C 13.957031 -10.957031 14.3125 -9.953125 14.28125 -8.796875 C 14.25 -7.316406 13.816406 -6.082031 12.984375 -5.09375 C 12.148438 -4.101562 10.992188 -3.492188 9.515625 -3.265625 C 9.085938 -3.203125 8.75 -3.171875 8.5 -3.171875 C 7.914062 -3.171875 7.625 -3.332031 7.625 -3.65625 C 7.625 -3.769531 7.675781 -3.863281 7.78125 -3.9375 C 7.882812 -4.007812 8.019531 -4.046875 8.1875 -4.046875 Z M 8.1875 -4.046875 "/></g></g></g><g fill="#291b25" fill-opacity="1"><g transform="translate(188.051666, 232.213564)"><g><path d="M 12.390625 -1.421875 L 12.40625 -0.421875 C 12.40625 -0.253906 12.359375 -0.125 12.265625 -0.03125 C 12.171875 0.0625 12.054688 0.109375 11.921875 0.109375 C 11.796875 0.109375 11.695312 0.0664062 11.625 -0.015625 C 11.550781 -0.0976562 11.515625 -0.207031 11.515625 -0.34375 C 11.515625 -0.46875 11.53125 -0.613281 11.5625 -0.78125 C 11.601562 -0.976562 11.625 -1.484375 11.625 -2.296875 L 11.625 -9.421875 L 6.71875 -9.421875 L 6.71875 0 L 1.734375 0 L 1.734375 -13.8125 L 6.71875 -13.8125 L 6.71875 -10.140625 C 8.125 -10.140625 9.242188 -10.140625 10.078125 -10.140625 C 10.921875 -10.140625 11.4375 -10.140625 11.625 -10.140625 L 11.625 -11.84375 C 11.625 -12.414062 11.617188 -12.785156 11.609375 -12.953125 L 11.5625 -13.25 C 11.550781 -13.332031 11.546875 -13.410156 11.546875 -13.484375 C 11.546875 -13.773438 11.6875 -13.921875 11.96875 -13.921875 C 12.0625 -13.921875 12.160156 -13.878906 12.265625 -13.796875 C 12.367188 -13.722656 12.421875 -13.597656 12.421875 -13.421875 L 12.390625 -12.171875 L 12.390625 -10.1875 L 13 -10.28125 C 13.113281 -10.28125 13.207031 -10.242188 13.28125 -10.171875 C 13.363281 -10.097656 13.40625 -10.007812 13.40625 -9.90625 C 13.40625 -9.644531 13.203125 -9.5 12.796875 -9.46875 C 12.734375 -9.457031 12.664062 -9.445312 12.59375 -9.4375 C 12.519531 -9.4375 12.453125 -9.4375 12.390625 -9.4375 Z M 12.390625 -1.421875 "/></g></g></g><g fill="#291b25" fill-opacity="1"><g transform="translate(202.313669, 232.213564)"><g><path d="M 10.296875 -0.84375 C 10.628906 -0.84375 10.796875 -0.710938 10.796875 -0.453125 C 10.796875 -0.335938 10.722656 -0.234375 10.578125 -0.140625 C 10.429688 -0.046875 10.179688 0 9.828125 0 L 1.5625 0 L 1.5625 -13.8125 C 4.125 -13.8125 6.691406 -13.8125 9.265625 -13.8125 L 10.0625 -13.84375 C 10.550781 -13.84375 10.796875 -13.703125 10.796875 -13.421875 C 10.796875 -13.304688 10.753906 -13.203125 10.671875 -13.109375 C 10.585938 -13.015625 10.492188 -12.96875 10.390625 -12.96875 C 10.222656 -12.96875 10.046875 -12.988281 9.859375 -13.03125 C 9.578125 -13.082031 9.191406 -13.109375 8.703125 -13.109375 L 6.546875 -13.109375 L 6.546875 -10.140625 L 8.328125 -10.140625 C 8.328125 -10.140625 8.722656 -10.15625 9.515625 -10.1875 C 9.660156 -10.1875 9.785156 -10.148438 9.890625 -10.078125 C 9.992188 -10.015625 10.046875 -9.921875 10.046875 -9.796875 C 10.046875 -9.523438 9.863281 -9.390625 9.5 -9.390625 L 9.078125 -9.390625 C 8.859375 -9.410156 8.675781 -9.421875 8.53125 -9.421875 L 6.546875 -9.421875 L 6.546875 -0.71875 L 8.703125 -0.71875 C 9.179688 -0.71875 9.523438 -0.734375 9.734375 -0.765625 C 9.972656 -0.816406 10.160156 -0.84375 10.296875 -0.84375 Z M 10.296875 -0.84375 "/></g></g></g><g fill="#291b25" fill-opacity="1"><g transform="translate(213.988794, 232.213564)"><g><path d="M 8.3125 -4.734375 L 9.109375 -4.671875 C 10.253906 -4.671875 11.226562 -5.070312 12.03125 -5.875 C 12.832031 -6.675781 13.234375 -7.675781 13.234375 -8.875 C 13.234375 -10.4375 12.546875 -11.59375 11.171875 -12.34375 C 10.421875 -12.757812 9.613281 -13 8.75 -13.0625 C 8.382812 -13.09375 8.046875 -13.109375 7.734375 -13.109375 L 7.078125 -13.109375 C 6.929688 -13.109375 6.804688 -13.109375 6.703125 -13.109375 L 6.703125 0 L 1.734375 0 L 1.734375 -13.8125 C 3.253906 -13.8125 4.484375 -13.8125 5.421875 -13.8125 C 6.367188 -13.8125 6.984375 -13.804688 7.265625 -13.796875 C 7.554688 -13.796875 7.8125 -13.789062 8.03125 -13.78125 C 8.257812 -13.769531 8.472656 -13.757812 8.671875 -13.75 C 8.960938 -13.726562 9.367188 -13.664062 9.890625 -13.5625 C 10.410156 -13.46875 10.925781 -13.28125 11.4375 -13 C 11.957031 -12.726562 12.40625 -12.394531 12.78125 -12 C 13.570312 -11.132812 13.96875 -10.109375 13.96875 -8.921875 C 13.96875 -7.753906 13.597656 -6.722656 12.859375 -5.828125 C 12.097656 -4.898438 11.082031 -4.304688 9.8125 -4.046875 C 10.414062 -2.171875 11.1875 -1.050781 12.125 -0.6875 C 12.414062 -0.570312 12.703125 -0.515625 12.984375 -0.515625 L 13.765625 -0.703125 C 14.003906 -0.703125 14.125 -0.578125 14.125 -0.328125 C 14.125 0.015625 13.71875 0.1875 12.90625 0.1875 C 12.320312 0.1875 11.785156 0.0234375 11.296875 -0.296875 C 10.535156 -0.753906 9.890625 -1.640625 9.359375 -2.953125 L 9.078125 -3.65625 C 9.023438 -3.757812 8.976562 -3.820312 8.9375 -3.84375 C 8.90625 -3.875 8.847656 -3.890625 8.765625 -3.890625 C 8.679688 -3.890625 8.601562 -3.882812 8.53125 -3.875 L 8.296875 -3.875 C 8.035156 -3.875 7.859375 -3.921875 7.765625 -4.015625 C 7.671875 -4.109375 7.625 -4.207031 7.625 -4.3125 C 7.625 -4.59375 7.851562 -4.734375 8.3125 -4.734375 Z M 8.3125 -4.734375 "/></g></g></g><g fill="#291b25" fill-opacity="1"><g transform="translate(172.94161, 244.463569)"><g><path d="M 0.3125 -6.453125 L 0.3125 -7.046875 L 1.359375 -7.046875 L 1.359375 -7.5 C 1.359375 -9.195312 2.234375 -10.046875 3.984375 -10.046875 C 4.617188 -10.046875 5.046875 -9.972656 5.265625 -9.828125 C 5.429688 -9.691406 5.609375 -9.46875 5.796875 -9.15625 L 5.34375 -8.78125 C 5.039062 -9.226562 4.566406 -9.453125 3.921875 -9.453125 C 3.117188 -9.453125 2.71875 -8.800781 2.71875 -7.5 L 2.71875 -7.046875 L 4.8125 -7.046875 L 4.8125 -6.453125 L 2.71875 -6.453125 L 2.71875 0 L 1.359375 0 L 1.359375 -6.453125 Z M 0.3125 -6.453125 "/></g></g></g><g fill="#291b25" fill-opacity="1"><g transform="translate(177.996602, 244.463569)"><g><path d="M 3.640625 0.15625 C 2.890625 0.15625 2.273438 -0.0390625 1.796875 -0.4375 C 1.328125 -0.84375 1.09375 -1.546875 1.09375 -2.546875 L 1.09375 -5.25 C 1.09375 -5.757812 1.019531 -6.132812 0.875 -6.375 C 0.738281 -6.625 0.460938 -6.75 0.046875 -6.75 L -0.109375 -6.75 L -0.109375 -7.046875 L 1.09375 -7.046875 C 1.46875 -7.046875 1.742188 -7 1.921875 -6.90625 C 2.109375 -6.8125 2.238281 -6.640625 2.3125 -6.390625 C 2.394531 -6.140625 2.4375 -5.757812 2.4375 -5.25 L 2.4375 -2.546875 C 2.4375 -1.847656 2.59375 -1.335938 2.90625 -1.015625 C 3.226562 -0.691406 3.625 -0.53125 4.09375 -0.53125 C 4.625 -0.53125 5.125 -0.789062 5.59375 -1.3125 L 5.59375 -7.046875 L 6.9375 -7.046875 L 6.9375 0 L 6.1875 0 L 5.671875 -0.59375 L 5.59375 -0.59375 C 5.382812 -0.382812 5.113281 -0.207031 4.78125 -0.0625 C 4.445312 0.0820312 4.066406 0.15625 3.640625 0.15625 Z M 3.640625 0.15625 "/></g></g></g><g fill="#291b25" fill-opacity="1"><g transform="translate(186.021599, 244.463569)"><g><path d="M 1.3125 -5.25 C 1.3125 -5.757812 1.238281 -6.132812 1.09375 -6.375 C 0.957031 -6.625 0.675781 -6.75 0.25 -6.75 L -0.046875 -6.75 L -0.046875 -7.046875 L 1.3125 -7.046875 C 1.675781 -7.046875 1.953125 -6.992188 2.140625 -6.890625 C 2.335938 -6.796875 2.484375 -6.648438 2.578125 -6.453125 L 2.65625 -6.453125 C 2.863281 -6.660156 3.132812 -6.835938 3.46875 -6.984375 C 3.800781 -7.128906 4.179688 -7.203125 4.609375 -7.203125 C 5.359375 -7.203125 5.96875 -7 6.4375 -6.59375 C 6.914062 -6.195312 7.15625 -5.5 7.15625 -4.5 L 7.15625 0 L 5.8125 0 L 5.8125 -4.5 C 5.8125 -5.195312 5.648438 -5.707031 5.328125 -6.03125 C 5.015625 -6.363281 4.625 -6.53125 4.15625 -6.53125 C 3.625 -6.53125 3.125 -6.265625 2.65625 -5.734375 L 2.65625 0 L 1.3125 0 Z M 1.3125 -5.25 "/></g></g></g><g fill="#291b25" fill-opacity="1"><g transform="translate(194.181591, 244.463569)"><g><path d="M 3.40625 0.15625 C 2.53125 0.15625 1.859375 -0.1875 1.390625 -0.875 C 0.929688 -1.570312 0.703125 -2.457031 0.703125 -3.53125 C 0.703125 -4.59375 0.941406 -5.46875 1.421875 -6.15625 C 1.910156 -6.851562 2.625 -7.203125 3.5625 -7.203125 C 3.9375 -7.203125 4.269531 -7.160156 4.5625 -7.078125 C 4.851562 -6.992188 5.144531 -6.882812 5.4375 -6.75 L 5.4375 -8.09375 C 5.4375 -8.601562 5.363281 -8.976562 5.21875 -9.21875 C 5.082031 -9.46875 4.800781 -9.59375 4.375 -9.59375 L 4.078125 -9.59375 L 4.078125 -9.90625 L 5.4375 -9.90625 C 5.800781 -9.90625 6.078125 -9.851562 6.265625 -9.75 C 6.453125 -9.65625 6.582031 -9.484375 6.65625 -9.234375 C 6.738281 -8.984375 6.78125 -8.601562 6.78125 -8.09375 L 6.78125 0 L 6.03125 0 L 5.5 -0.671875 L 5.4375 -0.671875 C 5.207031 -0.421875 4.945312 -0.21875 4.65625 -0.0625 C 4.363281 0.0820312 3.945312 0.15625 3.40625 0.15625 Z M 3.859375 -0.453125 C 4.265625 -0.453125 4.570312 -0.523438 4.78125 -0.671875 C 4.988281 -0.828125 5.207031 -1.050781 5.4375 -1.34375 L 5.4375 -6.15625 C 5.132812 -6.289062 4.867188 -6.394531 4.640625 -6.46875 C 4.421875 -6.550781 4.207031 -6.59375 4 -6.59375 C 3.363281 -6.59375 2.890625 -6.3125 2.578125 -5.75 C 2.273438 -5.195312 2.125 -4.457031 2.125 -3.53125 C 2.125 -2.601562 2.269531 -1.859375 2.5625 -1.296875 C 2.851562 -0.734375 3.285156 -0.453125 3.859375 -0.453125 Z M 3.859375 -0.453125 "/></g></g></g></svg>